<svg width="50" height="44" viewBox="0 0 50 44" fill="none" xmlns="http://www.w3.org/2000/svg">
<path d="M0 8.25C0 5.21641 2.49132 2.75 5.55556 2.75H44.4444C47.5087 2.75 50 5.21641 50 8.25V35.75C50 38.7836 47.5087 41.25 44.4444 41.25H5.55556C2.49132 41.25 0 38.7836 0 35.75V8.25ZM11.1111 24.75C11.8478 24.75 12.5544 24.4603 13.0753 23.9445C13.5962 23.4288 13.8889 22.7293 13.8889 22C13.8889 21.2707 13.5962 20.5712 13.0753 20.0555C12.5544 19.5397 11.8478 19.25 11.1111 19.25C10.3744 19.25 9.66786 19.5397 9.14692 20.0555C8.62599 20.5712 8.33333 21.2707 8.33333 22C8.33333 22.7293 8.62599 23.4288 9.14692 23.9445C9.66786 24.4603 10.3744 24.75 11.1111 24.75ZM13.8889 13.75C13.8889 13.0207 13.5962 12.3212 13.0753 11.8055C12.5544 11.2897 11.8478 11 11.1111 11C10.3744 11 9.66786 11.2897 9.14692 11.8055C8.62599 12.3212 8.33333 13.0207 8.33333 13.75C8.33333 14.4793 8.62599 15.1788 9.14692 15.6945C9.66786 16.2103 10.3744 16.5 11.1111 16.5C11.8478 16.5 12.5544 16.2103 13.0753 15.6945C13.5962 15.1788 13.8889 14.4793 13.8889 13.75ZM11.1111 33C11.8478 33 12.5544 32.7103 13.0753 32.1945C13.5962 31.6788 13.8889 30.9793 13.8889 30.25C13.8889 29.5207 13.5962 28.8212 13.0753 28.3055C12.5544 27.7897 11.8478 27.5 11.1111 27.5C10.3744 27.5 9.66786 27.7897 9.14692 28.3055C8.62599 28.8212 8.33333 29.5207 8.33333 30.25C8.33333 30.9793 8.62599 31.6788 9.14692 32.1945C9.66786 32.7103 10.3744 33 11.1111 33ZM19.4444 11.6875C18.2899 11.6875 17.3611 12.607 17.3611 13.75C17.3611 14.893 18.2899 15.8125 19.4444 15.8125H38.8889C40.0434 15.8125 40.9722 14.893 40.9722 13.75C40.9722 12.607 40.0434 11.6875 38.8889 11.6875H19.4444ZM19.4444 19.9375C18.2899 19.9375 17.3611 20.857 17.3611 22C17.3611 23.143 18.2899 24.0625 19.4444 24.0625H38.8889C40.0434 24.0625 40.9722 23.143 40.9722 22C40.9722 20.857 40.0434 19.9375 38.8889 19.9375H19.4444ZM19.4444 28.1875C18.2899 28.1875 17.3611 29.107 17.3611 30.25C17.3611 31.393 18.2899 32.3125 19.4444 32.3125H38.8889C40.0434 32.3125 40.9722 31.393 40.9722 30.25C40.9722 29.107 40.0434 28.1875 38.8889 28.1875H19.4444Z" fill="#2B8C37"/>
</svg>
