<svg width="38" height="44" viewBox="0 0 38 44" fill="none" xmlns="http://www.w3.org/2000/svg">
<g clip-path="url(#clip0_1042_4588)">
<path d="M38 6.875V11C38 14.7984 29.4924 17.875 19 17.875C8.50759 17.875 0 14.7984 0 11V6.875C0 3.07656 8.50759 0 19 0C29.4924 0 38 3.07656 38 6.875ZM33.3518 18.4508C35.1161 17.8148 36.7362 16.9984 38 15.993V24.75C38 28.5484 29.4924 31.625 19 31.625C8.50759 31.625 0 28.5484 0 24.75V15.993C1.26384 17.007 2.88393 17.8148 4.64821 18.4508C8.4567 19.8258 13.529 20.625 19 20.625C24.471 20.625 29.5433 19.8258 33.3518 18.4508ZM0 29.743C1.26384 30.757 2.88393 31.5648 4.64821 32.2008C8.4567 33.5758 13.529 34.375 19 34.375C24.471 34.375 29.5433 33.5758 33.3518 32.2008C35.1161 31.5648 36.7362 30.7484 38 29.743V37.125C38 40.9234 29.4924 44 19 44C8.50759 44 0 40.9234 0 37.125V29.743Z" fill="#2B8C37"/>
</g>
<defs>
<clipPath id="clip0_1042_4588">
<rect width="38" height="44" fill="white"/>
</clipPath>
</defs>
</svg>
