<svg width="28" height="28" viewBox="0 0 28 28" fill="none" xmlns="http://www.w3.org/2000/svg">
<g clip-path="url(#clip0_211_3183)">
<path d="M15.75 1.75C15.75 0.782031 14.968 0 14 0C13.032 0 12.25 0.782031 12.25 1.75V15.0227L8.23594 11.0086C7.55234 10.325 6.44219 10.325 5.75859 11.0086C5.075 11.6922 5.075 12.8023 5.75859 13.4859L12.7586 20.4859C13.4422 21.1695 14.5523 21.1695 15.2359 20.4859L22.2359 13.4859C22.9195 12.8023 22.9195 11.6922 22.2359 11.0086C21.5523 10.325 20.4422 10.325 19.7586 11.0086L15.75 15.0227V1.75ZM3.5 19.25C1.56953 19.25 0 20.8195 0 22.75V24.5C0 26.4305 1.56953 28 3.5 28H24.5C26.4305 28 28 26.4305 28 24.5V22.75C28 20.8195 26.4305 19.25 24.5 19.25H18.9492L16.4719 21.7273C15.1047 23.0945 12.8898 23.0945 11.5227 21.7273L9.05078 19.25H3.5ZM23.625 22.3125C23.9731 22.3125 24.3069 22.4508 24.5531 22.6969C24.7992 22.9431 24.9375 23.2769 24.9375 23.625C24.9375 23.9731 24.7992 24.3069 24.5531 24.5531C24.3069 24.7992 23.9731 24.9375 23.625 24.9375C23.2769 24.9375 22.9431 24.7992 22.6969 24.5531C22.4508 24.3069 22.3125 23.9731 22.3125 23.625C22.3125 23.2769 22.4508 22.9431 22.6969 22.6969C22.9431 22.4508 23.2769 22.3125 23.625 22.3125Z" fill="#1A1818"/>
</g>
<defs>
<clipPath id="clip0_211_3183">
<rect width="28" height="28" fill="white"/>
</clipPath>
</defs>
</svg>
