<svg width="44" height="44" viewBox="0 0 44 44" fill="none" xmlns="http://www.w3.org/2000/svg">
<g clip-path="url(#clip0_1042_732)">
<path d="M44 6.875C44 8.42188 42.7711 9.84844 40.7 11C38.1992 12.3836 34.4695 13.3633 30.1898 13.6555C29.8719 13.5008 29.5539 13.3547 29.2188 13.2258C25.8328 11.8078 21.3297 11 16.5 11C15.7867 11 15.0906 11.0172 14.3945 11.0516L14.3 11C12.2289 9.84844 11 8.42188 11 6.875C11 3.07656 18.3906 0 27.5 0C36.6094 0 44 3.07656 44 6.875ZM13.8102 13.8445C14.6867 13.7844 15.5891 13.75 16.5 13.75C21.8453 13.75 26.5891 14.807 29.6055 16.4484C31.7367 17.6086 33 19.0523 33 20.625C33 20.9688 32.9398 21.3039 32.8195 21.6305C32.4242 22.7648 31.3586 23.8047 29.8117 24.6813C29.8031 24.6898 29.7859 24.6898 29.7773 24.6984C29.7516 24.7156 29.7258 24.7242 29.7 24.7414C26.6922 26.4086 21.8969 27.4914 16.5 27.4914C11.3781 27.4914 6.79766 26.5203 3.76406 24.9906C3.60078 24.9133 3.44609 24.8273 3.29141 24.7414C1.22891 23.5984 0 22.1719 0 20.625C0 17.6344 4.58906 15.082 11 14.1453C11.9023 14.0164 12.8391 13.9133 13.8102 13.8445ZM35.75 20.625C35.75 18.743 34.8391 17.1961 33.6789 16.0359C36.1109 15.6578 38.3367 15.0563 40.2273 14.2742C41.6281 13.6898 42.9344 12.968 44 12.0828V15.125C44 16.7836 42.582 18.3133 40.2359 19.4992C38.9813 20.1352 37.4516 20.6766 35.7328 21.0891C35.7414 20.9344 35.75 20.7883 35.75 20.6336V20.625ZM33 28.875C33 30.4219 31.7711 31.8484 29.7 33C29.5453 33.0859 29.3906 33.1633 29.2273 33.2492C26.2023 34.7789 21.6219 35.75 16.5 35.75C11.1031 35.75 6.30781 34.6672 3.3 33C1.22891 31.8484 0 30.4219 0 28.875V25.8328C1.07422 26.718 2.37188 27.4398 3.77266 28.0242C7.16719 29.4422 11.6703 30.25 16.5 30.25C21.3297 30.25 25.8328 29.4422 29.2273 28.0242C29.8977 27.7492 30.5422 27.4313 31.1523 27.0875C31.6766 26.7953 32.1664 26.4688 32.6305 26.125C32.7594 26.0305 32.8797 25.9273 33 25.8328V26.125V26.6148V28.875ZM35.75 28.875V26.125V23.8992C37.3828 23.5383 38.8867 23.0828 40.2273 22.5242C41.6281 21.9398 42.9344 21.218 44 20.3328V23.375C44 24.2773 43.5703 25.1797 42.7195 26.0305C41.3188 27.4312 38.8523 28.5828 35.7328 29.3305C35.7414 29.1844 35.75 29.0297 35.75 28.875ZM16.5 38.5C21.3297 38.5 25.8328 37.6922 29.2273 36.2742C30.6281 35.6898 31.9344 34.968 33 34.0828V37.125C33 40.9234 25.6094 44 16.5 44C7.39062 44 0 40.9234 0 37.125V34.0828C1.07422 34.968 2.37188 35.6898 3.77266 36.2742C7.16719 37.6922 11.6703 38.5 16.5 38.5Z" fill="#2B8C37"/>
</g>
<defs>
<clipPath id="clip0_1042_732">
<rect width="44" height="44" fill="white"/>
</clipPath>
</defs>
</svg>
