<svg width="35" height="35" viewBox="0 0 35 35" fill="none" xmlns="http://www.w3.org/2000/svg">
<g clip-path="url(#clip0_757_3304)">
<path d="M32.2383 1.48364C30.7412 -0.0134278 28.3213 -0.0134278 26.8242 1.48364L24.7666 3.53442L31.459 10.2268L33.5166 8.16919C35.0137 6.67212 35.0137 4.2522 33.5166 2.75513L32.2383 1.48364ZM11.7852 16.5227C11.3682 16.9397 11.0469 17.4524 10.8623 18.0198L8.83887 24.0901C8.64062 24.678 8.79785 25.3274 9.23535 25.7717C9.67285 26.2161 10.3223 26.3665 10.917 26.1682L16.9873 24.1448C17.5479 23.9602 18.0605 23.6389 18.4844 23.2219L29.9209 11.7786L23.2217 5.07935L11.7852 16.5227ZM6.5625 4.37524C2.93945 4.37524 0 7.3147 0 10.9377V28.4377C0 32.0608 2.93945 35.0002 6.5625 35.0002H24.0625C27.6855 35.0002 30.625 32.0608 30.625 28.4377V21.8752C30.625 20.6653 29.6475 19.6877 28.4375 19.6877C27.2275 19.6877 26.25 20.6653 26.25 21.8752V28.4377C26.25 29.6477 25.2725 30.6252 24.0625 30.6252H6.5625C5.35254 30.6252 4.375 29.6477 4.375 28.4377V10.9377C4.375 9.72778 5.35254 8.75024 6.5625 8.75024H13.125C14.335 8.75024 15.3125 7.77271 15.3125 6.56274C15.3125 5.35278 14.335 4.37524 13.125 4.37524H6.5625Z" fill="#2B8C37"/>
</g>
<defs>
<clipPath id="clip0_757_3304">
<rect width="35" height="35" fill="white"/>
</clipPath>
</defs>
</svg>
