<svg width="28" height="28" viewBox="0 0 28 28" fill="none" xmlns="http://www.w3.org/2000/svg">
<g clip-path="url(#clip0_233_6291)">
<path d="M19.8353 1.05542L17.1884 3.70229L24.2978 10.8117L26.9446 8.16479C28.3118 6.79761 28.3118 4.58276 26.9446 3.21558L24.79 1.05542C23.4228 -0.311768 21.2079 -0.311768 19.8407 1.05542H19.8353ZM15.9525 4.93823L3.2048 17.6914C2.63605 18.2601 2.22042 18.9656 1.99073 19.7367L0.0547968 26.3156C-0.081922 26.7804 0.0438593 27.2781 0.382922 27.6171C0.721984 27.9562 1.21964 28.082 1.67902 27.9507L8.25792 26.0148C9.02902 25.7851 9.73448 25.3695 10.3032 24.8007L23.0618 12.0476L15.9525 4.93823Z" fill="#5B5B5B"/>
</g>
<defs>
<clipPath id="clip0_233_6291">
<rect width="28" height="28" fill="white"/>
</clipPath>
</defs>
</svg>
