<svg width="37" height="42" viewBox="0 0 37 42" fill="none" xmlns="http://www.w3.org/2000/svg">
<g clip-path="url(#clip0_1042_721)">
<path d="M28.8567 3.6586C29.3439 2.53478 28.9805 1.22228 27.9812 0.5004C26.9819 -0.221475 25.6192 -0.15585 24.6859 0.648057L3.54305 19.0231C2.71716 19.7449 2.41984 20.9016 2.80801 21.9188C3.19618 22.9359 4.18725 23.625 5.28568 23.625H14.4944L8.14327 38.3414C7.656 39.4652 8.01939 40.7777 9.01872 41.4996C10.0181 42.2215 11.3808 42.1559 12.314 41.352L33.4569 22.977C34.2828 22.2551 34.5801 21.0984 34.1919 20.0813C33.8038 19.0641 32.821 18.3832 31.7143 18.3832H22.5056L28.8567 3.6586Z" fill="#2B8C37"/>
</g>
<defs>
<clipPath id="clip0_1042_721">
<rect width="37" height="42" fill="white"/>
</clipPath>
</defs>
</svg>
