<svg width="45" height="39" viewBox="0 0 45 39" fill="none" xmlns="http://www.w3.org/2000/svg">
<path d="M6.00702 4.94873C3.88495 4.94873 2.16327 6.59988 2.16327 8.63503C2.16327 9.79467 2.73182 10.8852 3.70077 11.5841L21.1258 24.1175C22.0387 24.7702 23.2879 24.7702 24.2008 24.1175L41.6258 11.5841C42.5947 10.8852 43.1633 9.79467 43.1633 8.63503C43.1633 6.59988 41.4416 4.94873 39.3195 4.94873H6.00702ZM2.16327 13.5501V29.524C2.16327 32.235 4.46151 34.4391 7.28827 34.4391H38.0383C40.865 34.4391 43.1633 32.235 43.1633 29.524V13.5501L25.7383 26.0835C23.9125 27.3967 21.4141 27.3967 19.5883 26.0835L2.16327 13.5501Z" fill="#2B8C37"/>
</svg>
