<svg width="42" height="42" viewBox="0 0 42 42" fill="none" xmlns="http://www.w3.org/2000/svg">
<g clip-path="url(#clip0_1042_726)">
<path d="M42 2.625C42 11.9437 35.0602 19.6465 26.0695 20.8359C25.4871 16.4555 23.5594 12.5016 20.7129 9.40898C23.8547 3.79805 29.8594 0 36.75 0H39.375C40.827 0 42 1.17305 42 2.625ZM0 7.875C0 6.42305 1.17305 5.25 2.625 5.25H5.25C15.3973 5.25 23.625 13.4777 23.625 23.625V26.25V39.375C23.625 40.827 22.452 42 21 42C19.548 42 18.375 40.827 18.375 39.375V26.25C8.22773 26.25 0 18.0223 0 7.875Z" fill="#2B8C37"/>
</g>
<defs>
<clipPath id="clip0_1042_726">
<rect width="42" height="42" fill="white"/>
</clipPath>
</defs>
</svg>
