<svg width="201" height="194" viewBox="0 0 201 194" fill="none" xmlns="http://www.w3.org/2000/svg">
<path d="M75.9941 17.3711C82.4194 16.441 87.0938 21.8176 87.0938 27.4053V104.048L135.369 154.254C139.365 158.41 139.377 165.599 134.27 169.357C121.004 179.212 104.732 185 87.1719 185C42.1755 185 6 147.126 6 100.781C6 58.702 35.8414 23.5731 75.0654 17.5098L75.9941 17.3711ZM178.071 101.062C183.951 101.063 188.528 106.125 187.951 112.015L187.918 112.313L187.916 112.33C185.323 131.908 176.259 149.341 162.987 162.23L162.986 162.231C158.986 166.114 152.828 165.712 149.173 161.879V161.88L98.8037 109.529L90.6572 101.062H178.071ZM102.406 6C144.611 6 178.501 41.532 178.501 84.9375C178.501 90.7243 173.795 95.2187 168.232 95.2188H167.107L166.092 94.7373L95.1885 61.1484L92.3281 59.7939V16.4795C92.3281 11.1809 96.3743 6.00028 102.406 6Z" fill="#2B8C37" stroke="white" stroke-width="10"/>
</svg>
