<svg width="51" height="51" viewBox="0 0 51 51" fill="none" xmlns="http://www.w3.org/2000/svg">
<g clip-path="url(#clip0_757_2967)">
<path d="M12.75 6.375C12.75 2.85879 15.6088 0 19.125 0H35.0625V12.75C35.0625 14.5131 36.4869 15.9375 38.25 15.9375H51V44.625C51 48.1412 48.1412 51 44.625 51H19.125C15.6088 51 12.75 48.1412 12.75 44.625V33.4688H30.092L26.2072 37.3535C25.2709 38.2898 25.2709 39.8039 26.2072 40.7303C27.1436 41.6566 28.6576 41.6666 29.584 40.7303L37.5527 32.7615C38.4891 31.8252 38.4891 30.3111 37.5527 29.3848L29.584 21.416C28.6477 20.4797 27.1336 20.4797 26.2072 21.416C25.2809 22.3523 25.2709 23.8664 26.2072 24.7928L30.092 28.6775L12.75 28.6875V6.375ZM12.75 28.6875V33.4688H2.39062C1.06582 33.4688 0 32.4029 0 31.0781C0 29.7533 1.06582 28.6875 2.39062 28.6875H12.75ZM51 12.75H38.25V0L51 12.75Z" fill="#6F6C6C"/>
</g>
<defs>
<clipPath id="clip0_757_2967">
<rect width="51" height="51" fill="white"/>
</clipPath>
</defs>
</svg>
