<svg width="33" height="30" viewBox="0 0 33 30" fill="none" xmlns="http://www.w3.org/2000/svg">
<g clip-path="url(#clip0_869_1681)">
<path d="M0 3.75C0 1.68164 1.64237 0 3.66243 0H12.8185V7.5C12.8185 8.53711 13.6368 9.375 14.6497 9.375H21.9746V16.875H12.3607C11.5996 16.875 10.9873 17.502 10.9873 18.2812C10.9873 19.0605 11.5996 19.6875 12.3607 19.6875H21.9746V26.25C21.9746 28.3184 20.3322 30 18.3121 30H3.66243C1.64237 30 0 28.3184 0 26.25V3.75ZM21.9746 19.6875V16.875H28.2751L26.0433 14.5898C25.5054 14.0391 25.5054 13.1484 26.0433 12.6035C26.5812 12.0586 27.451 12.0527 27.9832 12.6035L32.5613 17.291C33.0992 17.8418 33.0992 18.7324 32.5613 19.2773L27.9832 23.9648C27.4453 24.5156 26.5755 24.5156 26.0433 23.9648C25.5111 23.4141 25.5054 22.5234 26.0433 21.9785L28.2751 19.6934L21.9746 19.6875ZM21.9746 7.5H14.6497V0L21.9746 7.5Z" fill="#182959"/>
</g>
<defs>
<clipPath id="clip0_869_1681">
<rect width="32.9618" height="30" fill="white"/>
</clipPath>
</defs>
</svg>
