<svg width="35" height="41" viewBox="0 0 35 41" fill="none" xmlns="http://www.w3.org/2000/svg">
<path d="M19.975 39.6219C24.25 34.5712 34 22.33 34 15.4542C34 7.11507 26.8333 0.349365 18 0.349365C9.16667 0.349365 2 7.11507 2 15.4542C2 22.33 11.75 34.5712 16.025 39.6219C17.05 40.8256 18.95 40.8256 19.975 39.6219ZM18 10.4192C19.4145 10.4192 20.771 10.9497 21.7712 11.8939C22.7714 12.8382 23.3333 14.1188 23.3333 15.4542C23.3333 16.7895 22.7714 18.0702 21.7712 19.0144C20.771 19.9587 19.4145 20.4891 18 20.4891C16.5855 20.4891 15.229 19.9587 14.2288 19.0144C13.2286 18.0702 12.6667 16.7895 12.6667 15.4542C12.6667 14.1188 13.2286 12.8382 14.2288 11.8939C15.229 10.9497 16.5855 10.4192 18 10.4192Z" fill="#2B8C37"/>
</svg>
