<svg width="41" height="36" viewBox="0 0 41 36" fill="none" xmlns="http://www.w3.org/2000/svg">
<path d="M10.7385 30.0616L0.904881 20.1938C0.32832 19.6152 0 18.8196 0 18C0 17.1804 0.32832 16.3848 0.904881 15.8063L10.7385 5.93839C11.251 5.42411 11.9396 5.14286 12.6604 5.14286C14.1578 5.14286 15.375 6.36429 15.375 7.86696V12.8571H25.625C27.0424 12.8571 28.1875 14.0063 28.1875 15.4286V20.5714C28.1875 21.9937 27.0424 23.1429 25.625 23.1429H15.375V28.133C15.375 29.6357 14.1578 30.8571 12.6604 30.8571C11.9396 30.8571 11.251 30.5679 10.7385 30.0616ZM28.1875 30.8571H33.3125C34.7299 30.8571 35.875 29.708 35.875 28.2857V7.71429C35.875 6.29197 34.7299 5.14286 33.3125 5.14286H28.1875C26.7701 5.14286 25.625 3.99375 25.625 2.57143C25.625 1.14911 26.7701 0 28.1875 0H33.3125C37.5566 0 41 3.45536 41 7.71429V28.2857C41 32.5446 37.5566 36 33.3125 36H28.1875C26.7701 36 25.625 34.8509 25.625 33.4286C25.625 32.0062 26.7701 30.8571 28.1875 30.8571Z" fill="#182959"/>
</svg>
