<svg width="46" height="43" viewBox="0 0 46 43" fill="none" xmlns="http://www.w3.org/2000/svg">
<path d="M16.527 4.58552C15.8953 3.12224 14.2301 2.34339 12.6387 2.76035L5.41992 4.64845C3.99258 5.02607 3 6.26907 3 7.68515C3 27.1483 19.4555 42.9297 39.75 42.9297C41.2266 42.9297 42.5227 41.9778 42.9164 40.6089L44.8852 33.6859C45.3199 32.1597 44.5078 30.5627 42.982 29.9569L35.107 26.8101C33.7699 26.2751 32.2195 26.6448 31.309 27.7226L27.9949 31.6011C22.2199 28.9814 17.5441 24.4971 14.8125 18.9587L18.8566 15.7883C19.9805 14.9071 20.366 13.4281 19.8082 12.1458L16.527 4.59338V4.58552Z" fill="#2B8C37"/>
</svg>
