<svg width="41" height="41" viewBox="0 0 41 41" fill="none" xmlns="http://www.w3.org/2000/svg">
<g clip-path="url(#clip0_1042_735)">
<path d="M31.9512 30.766C30.1814 27.691 26.8582 25.625 23.0625 25.625H17.9375C14.1418 25.625 10.8186 27.691 9.04883 30.766C11.8676 33.9051 15.9516 35.875 20.5 35.875C25.0484 35.875 29.1324 33.8971 31.9512 30.766ZM0 20.5C0 15.0631 2.15982 9.84881 6.00431 6.00431C9.84881 2.15982 15.0631 0 20.5 0C25.9369 0 31.1512 2.15982 34.9957 6.00431C38.8402 9.84881 41 15.0631 41 20.5C41 25.9369 38.8402 31.1512 34.9957 34.9957C31.1512 38.8402 25.9369 41 20.5 41C15.0631 41 9.84881 38.8402 6.00431 34.9957C2.15982 31.1512 0 25.9369 0 20.5ZM20.5 21.7812C22.0291 21.7812 23.4956 21.1738 24.5769 20.0925C25.6582 19.0113 26.2656 17.5448 26.2656 16.0156C26.2656 14.4865 25.6582 13.02 24.5769 11.9387C23.4956 10.8574 22.0291 10.25 20.5 10.25C18.9709 10.25 17.5044 10.8574 16.4231 11.9387C15.3418 13.02 14.7344 14.4865 14.7344 16.0156C14.7344 17.5448 15.3418 19.0113 16.4231 20.0925C17.5044 21.1738 18.9709 21.7812 20.5 21.7812Z" fill="#1A1818"/>
</g>
<defs>
<clipPath id="clip0_1042_735">
<rect width="41" height="41" fill="white"/>
</clipPath>
</defs>
</svg>
