<svg width="31" height="32" viewBox="0 0 31 32" fill="none" xmlns="http://www.w3.org/2000/svg">
<path d="M6.36348 12.6626C6.82969 11.3001 7.58652 10.0188 8.65215 8.9251C12.4363 5.01885 18.5697 5.01885 22.3539 8.9251L23.3893 10.0001H21.3125C20.2408 10.0001 19.375 10.8938 19.375 12.0001C19.375 13.1063 20.2408 14.0001 21.3125 14.0001H28.0635H28.0877C29.1594 14.0001 30.0252 13.1063 30.0252 12.0001V5.0001C30.0252 3.89385 29.1594 3.0001 28.0877 3.0001C27.016 3.0001 26.1502 3.89385 26.1502 5.0001V7.2001L25.0906 6.1001C19.7928 0.631348 11.2072 0.631348 5.90937 6.1001C4.43203 7.6251 3.36641 9.41885 2.7125 11.3376C2.35527 12.3813 2.88809 13.5188 3.89316 13.8876C4.89824 14.2563 6.00625 13.7063 6.36348 12.6688V12.6626ZM2.36133 18.0813C2.05859 18.1751 1.76797 18.3438 1.53184 18.5938C1.28965 18.8438 1.12617 19.1438 1.04141 19.4688C1.02324 19.5438 1.00508 19.6251 0.992969 19.7063C0.974805 19.8126 0.96875 19.9188 0.96875 20.0251V27.0001C0.96875 28.1063 1.83457 29.0001 2.90625 29.0001C3.97793 29.0001 4.84375 28.1063 4.84375 27.0001V24.8063L5.90937 25.9001C11.2072 31.3626 19.7928 31.3626 25.0846 25.9001C26.5619 24.3751 27.6336 22.5813 28.2875 20.6626C28.6447 19.6188 28.1119 18.4813 27.1068 18.1126C26.1018 17.7438 24.9937 18.2938 24.6365 19.3313C24.1703 20.6938 23.4135 21.9751 22.3479 23.0688C18.5637 26.9751 12.4303 26.9751 8.64609 23.0688L8.64004 23.0626L7.60469 22.0001H9.6875C10.7592 22.0001 11.625 21.1063 11.625 20.0001C11.625 18.8938 10.7592 18.0001 9.6875 18.0001H2.93047C2.83359 18.0001 2.73672 18.0063 2.63984 18.0188C2.54297 18.0313 2.45215 18.0501 2.36133 18.0813Z" fill="#2B8C37"/>
</svg>
