<svg width="89" height="89" viewBox="0 0 89 89" fill="none" xmlns="http://www.w3.org/2000/svg">
<path d="M44.5 89C56.3021 89 67.6209 84.3116 75.9663 75.9663C84.3116 67.6209 89 56.3021 89 44.5C89 32.6979 84.3116 21.3791 75.9663 13.0337C67.6209 4.68838 56.3021 0 44.5 0C32.6979 0 21.3791 4.68838 13.0337 13.0337C4.68838 21.3791 0 32.6979 0 44.5C0 56.3021 4.68838 67.6209 13.0337 75.9663C21.3791 84.3116 32.6979 89 44.5 89ZM64.1426 36.3301L41.8926 58.5801C40.2586 60.2141 37.6164 60.2141 35.9998 58.5801L24.8748 47.4551C23.2408 45.8211 23.2408 43.1789 24.8748 41.5623C26.5088 39.9457 29.151 39.9283 30.7676 41.5623L38.9375 49.7322L58.2324 30.4199C59.8664 28.7859 62.5086 28.7859 64.1252 30.4199C65.7418 32.0539 65.7592 34.6961 64.1252 36.3127L64.1426 36.3301Z" fill="#2B8C37"/>
</svg>
