<svg width="53" height="42" viewBox="0 0 53 42" fill="none" xmlns="http://www.w3.org/2000/svg">
<g clip-path="url(#clip0_1042_717)">
<path d="M11.925 0C13.6821 0 15.3672 0.691404 16.6096 1.92211C17.852 3.15282 18.55 4.82202 18.55 6.5625C18.55 8.30298 17.852 9.97218 16.6096 11.2029C15.3672 12.4336 13.6821 13.125 11.925 13.125C10.1679 13.125 8.48285 12.4336 7.24042 11.2029C5.99799 9.97218 5.3 8.30298 5.3 6.5625C5.3 4.82202 5.99799 3.15282 7.24042 1.92211C8.48285 0.691404 10.1679 0 11.925 0ZM42.4 0C44.1571 0 45.8422 0.691404 47.0846 1.92211C48.327 3.15282 49.025 4.82202 49.025 6.5625C49.025 8.30298 48.327 9.97218 47.0846 11.2029C45.8422 12.4336 44.1571 13.125 42.4 13.125C40.6429 13.125 38.9578 12.4336 37.7154 11.2029C36.473 9.97218 35.775 8.30298 35.775 6.5625C35.775 4.82202 36.473 3.15282 37.7154 1.92211C38.9578 0.691404 40.6429 0 42.4 0ZM0 24.5027C0 19.6711 3.95844 15.75 8.83609 15.75H12.3722C13.6889 15.75 14.9394 16.0371 16.0656 16.5457C15.958 17.1363 15.9083 17.7516 15.9083 18.375C15.9083 21.5086 17.2995 24.3223 19.4941 26.25C19.4775 26.25 19.4609 26.25 19.4361 26.25H1.76391C0.795 26.25 0 25.4625 0 24.5027ZM33.5639 26.25C33.5473 26.25 33.5308 26.25 33.5059 26.25C35.7088 24.3223 37.0917 21.5086 37.0917 18.375C37.0917 17.7516 37.0338 17.1445 36.9344 16.5457C38.0606 16.0289 39.3111 15.75 40.6278 15.75H44.1639C49.0416 15.75 53 19.6711 53 24.5027C53 25.4707 52.205 26.25 51.2361 26.25H33.5722H33.5639ZM18.55 18.375C18.55 16.2864 19.3876 14.2834 20.8785 12.8065C22.3694 11.3297 24.3915 10.5 26.5 10.5C28.6085 10.5 30.6306 11.3297 32.1215 12.8065C33.6124 14.2834 34.45 16.2864 34.45 18.375C34.45 20.4636 33.6124 22.4666 32.1215 23.9435C30.6306 25.4203 28.6085 26.25 26.5 26.25C24.3915 26.25 22.3694 25.4203 20.8785 23.9435C19.3876 22.4666 18.55 20.4636 18.55 18.375ZM10.6 39.8098C10.6 33.7723 15.5439 28.875 21.6389 28.875H31.3528C37.4561 28.875 42.4 33.7723 42.4 39.8098C42.4 41.0156 41.4145 42 40.1889 42H12.8028C11.5855 42 10.5917 41.0238 10.5917 39.8098H10.6Z" fill="#2B8C37"/>
</g>
<defs>
<clipPath id="clip0_1042_717">
<rect width="53" height="42" fill="white"/>
</clipPath>
</defs>
</svg>
