<svg width="192" height="192" viewBox="0 0 192 192" fill="none" xmlns="http://www.w3.org/2000/svg">
<circle cx="96" cy="96" r="96" fill="#182959"/>
<g clip-path="url(#clip0_1042_3937)">
<path d="M95.5 96C102.699 96 109.603 93.1554 114.693 88.0919C119.783 83.0284 122.643 76.1608 122.643 69C122.643 61.8392 119.783 54.9716 114.693 49.9081C109.603 44.8446 102.699 42 95.5 42C88.3013 42 81.3974 44.8446 76.3071 49.9081C71.2168 54.9716 68.3571 61.8392 68.3571 69C68.3571 76.1608 71.2168 83.0284 76.3071 88.0919C81.3974 93.1554 88.3013 96 95.5 96ZM85.8092 106.125C64.9219 106.125 48 122.958 48 143.735C48 147.195 50.8203 150 54.298 150H136.702C140.18 150 143 147.195 143 143.735C143 122.958 126.078 106.125 105.191 106.125H85.8092Z" fill="white"/>
</g>
<defs>
<clipPath id="clip0_1042_3937">
<rect width="95" height="108" fill="white" transform="translate(48 42)"/>
</clipPath>
</defs>
</svg>
