<svg width="49" height="39" viewBox="0 0 49 39" fill="none" xmlns="http://www.w3.org/2000/svg">
<g clip-path="url(#clip0_1042_4592)">
<path d="M17.15 19.5C19.7491 19.5 22.2418 18.4728 24.0796 16.6443C25.9175 14.8158 26.95 12.3359 26.95 9.75C26.95 7.16414 25.9175 4.68419 24.0796 2.85571C22.2418 1.02723 19.7491 0 17.15 0C14.5509 0 12.0582 1.02723 10.2204 2.85571C8.3825 4.68419 7.35 7.16414 7.35 9.75C7.35 12.3359 8.3825 14.8158 10.2204 16.6443C12.0582 18.4728 14.5509 19.5 17.15 19.5ZM13.6511 23.1562C6.10969 23.1562 0 29.2348 0 36.7377C0 37.9869 1.01828 39 2.27391 39H24.7144C24.477 38.3297 24.4311 37.5984 24.6072 36.8824L25.7556 32.3045C25.97 31.4438 26.4141 30.6668 27.0419 30.0422L30.1273 26.9725C27.6697 24.6111 24.3316 23.1562 20.6413 23.1562H13.6434H13.6511ZM46.9941 17.9537C45.7997 16.7654 43.8627 16.7654 42.6606 17.9537L40.4097 20.1932L45.8456 25.6014L48.0966 23.3619C49.2909 22.1736 49.2909 20.2465 48.0966 19.0506L46.9941 17.9537ZM28.7798 31.7637C28.4659 32.076 28.2439 32.4645 28.1367 32.8986L26.9883 37.4766C26.8811 37.8955 27.0036 38.3297 27.3098 38.6344C27.6161 38.9391 28.0525 39.0609 28.4736 38.9543L33.075 37.8117C33.5037 37.7051 33.9019 37.4842 34.2158 37.1719L44.1077 27.3229L38.6717 21.9146L28.7798 31.7637Z" fill="#2B8C37"/>
</g>
<defs>
<clipPath id="clip0_1042_4592">
<rect width="49" height="39" fill="white"/>
</clipPath>
</defs>
</svg>
