<svg width="26" height="26" viewBox="0 0 26 26" fill="none" xmlns="http://www.w3.org/2000/svg">
<g clip-path="url(#clip0_751_1954)">
<path d="M16.25 0C15.3512 0 14.625 0.726172 14.625 1.625C14.625 2.52383 15.3512 3.25 16.25 3.25H20.4496L10.2273 13.4773C9.59258 14.1121 9.59258 15.143 10.2273 15.7777C10.8621 16.4125 11.893 16.4125 12.5277 15.7777L22.75 5.55039V9.75C22.75 10.6488 23.4762 11.375 24.375 11.375C25.2738 11.375 26 10.6488 26 9.75V1.625C26 0.726172 25.2738 0 24.375 0H16.25ZM4.0625 1.625C1.81797 1.625 0 3.44297 0 5.6875V21.9375C0 24.182 1.81797 26 4.0625 26H20.3125C22.557 26 24.375 24.182 24.375 21.9375V16.25C24.375 15.3512 23.6488 14.625 22.75 14.625C21.8512 14.625 21.125 15.3512 21.125 16.25V21.9375C21.125 22.3844 20.7594 22.75 20.3125 22.75H4.0625C3.61562 22.75 3.25 22.3844 3.25 21.9375V5.6875C3.25 5.24062 3.61562 4.875 4.0625 4.875H9.75C10.6488 4.875 11.375 4.14883 11.375 3.25C11.375 2.35117 10.6488 1.625 9.75 1.625H4.0625Z" fill="#717171"/>
</g>
<defs>
<clipPath id="clip0_751_1954">
<rect width="26" height="26" fill="white"/>
</clipPath>
</defs>
</svg>
