<svg width="51" height="47" viewBox="0 0 51 47" fill="none" xmlns="http://www.w3.org/2000/svg">
<path d="M24.0834 22.0312V1.52383C24.0834 0.697656 23.4636 0 22.6667 0C11.7141 0 2.83335 9.20723 2.83335 20.5625C2.83335 21.3887 3.50627 22.0312 4.30314 22.0312H24.0834ZM48.1667 24.9688C48.1667 13.8338 40.1891 4.61738 29.8386 3.14863C29.024 3.0293 28.3334 3.70859 28.3334 4.5623V26.4375L14.4766 40.8037C13.8834 41.4188 13.9276 42.4285 14.6094 42.9242C18.0802 45.4945 22.3302 47 26.9167 47C38.6485 47 48.1667 37.141 48.1667 24.9688ZM1.55835 26.4375C0.734917 26.4375 0.0885658 27.1535 0.194813 27.998C0.876587 33.1295 3.25835 37.6918 6.73804 41.0607C7.26929 41.5748 8.10158 41.5381 8.61512 40.9965L22.6667 26.4375H1.55835Z" fill="#182959"/>
</svg>
